<svg xmlns="http://www.w3.org/2000/svg" viewBox="0 0 190 70"><path fill="#3B8DCA" d="M5.48 5.7h19.54v39.07H5.48z"/><path fill="#1B80C4" d="M5.48 44.77h39.07v19.54H5.48z"/><path fill="#2D3D50" d="M44.56 25.23H64.1V64.3H44.56z"/><path fill="#F04C36" d="M25.02 5.7h39.07v19.54H25.02z"/><g fill="#2C3E51"><path d="M104.23 32.47c0 5.67-2.54 12.31-12.08 12.31-9.6 0-11.89-6.74-11.89-12.33V12.82h6.8V32.5c0 3.59 1.13 6.16 5.09 6.16 4.51 0 5.34-2.57 5.34-6.2l.02-19.63h6.72v19.64zM122.8 44.2V30.55c0-2.36-.81-4.05-2.98-4.05-1.77 0-3.26 1.88-4.26 3.71l.04 13.98h-6.47V21.37h5.99l.13 3.3c2.19-2.4 3.92-3.46 6.11-3.61 6.49-.44 7.87 4.65 7.87 9.52V44.2h-6.43zM141.25 44.2h-6.34V26.32h-2.78v-4.94h9.12V44.2zm-3.24-34.35a4.05 4.05 0 0 1 4.13 4.05 4.06 4.06 0 0 1-4.13 4.03c-2.17 0-4.17-1.61-4.17-4.03s2-4.05 4.17-4.05zM160.1 17.49a19.6 19.6 0 0 0-3.17-.48c-1.63 0-1.88.94-1.88 1.94v2.42h4.69v4.67l-4.67-.02V44.2h-6.36V26.02h-3.74v-4.65h3.74v-2.59c0-4.32 3.23-7.05 7.49-7.05 1.67 0 3.32.48 4.92.94l-1.02 4.82zM177.5 21.37h7.01l-9.91 27.35c-1.46 4.03-3.36 5.63-7.74 5.63-1.38 0-2.94-.4-4.26-.75l.88-5.17c.9.19 2.5.56 2.73.56 1.06 0 1.58-.54 2.09-1.4.38-.58 1.4-3.55 1.71-4.34l-8.62-21.89h7.05l2.15 7.22c.4 1.36 2.3 8.56 2.34 8.56l2.55-8.58 2.02-7.19z"/><g><path d="M84.19 49.87H82.5V58.24h2.44c2.13 0 3.55-1.65 3.55-4.1 0-2.88-1.41-4.27-4.3-4.27zm1.83 7.36c-.37.17-.8.28-1.3.28h-1.46v-6.92h.98c2.41 0 3.49 1.12 3.49 3.63 0 1.18-.52 2.41-1.63 2.98a.69.69 0 0 0-.08.03zM96.04 49.87h-.05v8.36h.78v-8.36h-.04zM110.45 54.2H108V54.95h1.76v1.17c-.46 1.02-1.19 1.54-2.16 1.54-2.2 0-2.44-2.52-2.44-3.6 0-1.71.65-3.54 2.46-3.54.57 0 1.39.18 1.99 1.06l.03.04.04-.03.5-.37.03-.03-.02-.04a2.86 2.86 0 0 0-2.49-1.38c-.69 0-1.28.19-1.77.53l-.09.06c-.18.13-.35.29-.5.47l-.07.09-.18.21a5.48 5.48 0 0 0-.73 2.91c0 2.8 1.15 4.34 3.24 4.34.87 0 1.54-.19 2.19-1.12l.02.91v.05H110.45v-.05l-.01-3.93.01-.04zm-4.3-4.02zm3.35 7.34c.11-.13.21-.25.32-.42v.03c-.11.16-.21.27-.32.39zM118.22 49.87h-.05v8.36h.78v-8.36h-.04zM126.22 49.87h-.05V50.58H128.39V58.23h.78V50.58H131.35V49.87h-.05zM140.49 49.9l-.01-.03H139.64l-.01.03-2.92 8.27-.02.06h.75l.01-.03.81-2.26h3.56l.79 2.26.01.03h.81l-.02-.06-2.92-8.27zm-.46.97l1.54 4.37h-3.08l1.54-4.37zm-1.59 4.42h.8-.8zm3.19-.02l-.39-1.1.39 1.1zm-4.15.85l-.72 2.06h-.01l.73-2.06zM155.09 57.48h-3.84v-7.62h-.79V58.23h4.64v-.04l.04-.65v-.05h-.05zm-.01.06v-.01.01z"/></g></g></svg>